<?xml version="1.0" encoding="UTF-8" standalone="no"?>
<svg
   xmlns:dc="http://purl.org/dc/elements/1.1/"
   xmlns:cc="http://creativecommons.org/ns#"
   xmlns:rdf="http://www.w3.org/1999/02/22-rdf-syntax-ns#"
   xmlns:svg="http://www.w3.org/2000/svg"
   xmlns="http://www.w3.org/2000/svg"
   xmlns:sodipodi="http://sodipodi.sourceforge.net/DTD/sodipodi-0.dtd"
   xmlns:inkscape="http://www.inkscape.org/namespaces/inkscape"
   version="1.1"
   x="0px"
   y="0px"
   viewBox="0 0 38.964001 36.656971"
   enable-background="new 0 0 90 90"
   xml:space="preserve"
   id="svg2"
   inkscape:version="0.91 r13725"
   sodipodi:docname="noun_156220_cc.svg"
   width="38.964001"
   height="36.656971"><metadata
     id="metadata26"><rdf:RDF><cc:Work
         rdf:about=""><dc:format>image/svg+xml</dc:format><dc:type
           rdf:resource="http://purl.org/dc/dcmitype/StillImage" /><dc:title></dc:title></cc:Work></rdf:RDF></metadata><defs
     id="defs24" /><sodipodi:namedview
     pagecolor="#ffffff"
     bordercolor="#666666"
     borderopacity="1"
     objecttolerance="10"
     gridtolerance="10"
     guidetolerance="10"
     inkscape:pageopacity="0"
     inkscape:pageshadow="2"
     inkscape:window-width="2560"
     inkscape:window-height="1471"
     id="namedview22"
     showgrid="false"
     fit-margin-top="0"
     fit-margin-left="0"
     fit-margin-right="0"
     fit-margin-bottom="0"
     inkscape:zoom="2.0977778"
     inkscape:cx="20.56139"
     inkscape:cy="6.125191"
     inkscape:window-x="0"
     inkscape:window-y="55"
     inkscape:window-maximized="1"
     inkscape:current-layer="svg2" /><g
     display="none"
     id="g4"
     style="display:none"
     transform="translate(-25.392,-25.718219)"><path
       display="inline"
       d="m 44.75,5.625 c 21.78,0 39.5,17.691 39.5,39.438 C 84.25,66.81 66.53,84.5 44.75,84.5 22.97,84.5 5.25,66.809 5.25,45.062 5.25,23.315 22.97,5.625 44.75,5.625 m 0,-0.5 c -22.091,0 -40,17.881 -40,39.938 0,22.057 17.909,39.937 40,39.937 22.092,0 40,-17.881 40,-39.938 0,-22.057 -17.908,-39.937 -40,-39.937 l 0,0 z"
       id="path6"
       inkscape:connector-curvature="0"
       style="display:inline" /></g><path
     d="m 35.734,36.204781 c 0,0.463 -8.964,0.452 -17.938,0.452 -8.974,10e-4 -14.561,0.012 -14.561,-0.451 0,-0.462 7.087,-2.298 16.061,-2.299 8.974,0 16.438,1.836 16.438,2.298 z"
     id="path8"
     inkscape:connector-curvature="0" /><path
     d="m 38.964,0.04378112 c 0,0.219 -1.455,1.94799998 -3.24,1.94799998 -1.784,0 -3.223,-1.72899998 -3.223,-1.94799998 0,-0.218 1.476,0.449 3.261,0.449 1.784,0 3.202,-0.667 3.202,-0.449 z"
     id="path10"
     inkscape:connector-curvature="0" /><path
     d="m 6.464,0.04378112 c 0,0.219 -1.455,1.94799998 -3.24,1.94799998 C 1.44,1.9917811 0,0.26278112 0,0.04378112 c 0,-0.218 1.477,0.449 3.262,0.449 1.784,0 3.202,-0.667 3.202,-0.449 z"
     id="path12"
     inkscape:connector-curvature="0" /><circle
     cx="3.2169993"
     cy="3.6567812"
     r="1.4170001"
     id="circle14" /><circle
     cx="35.759003"
     cy="3.6567812"
     r="1.4170001"
     id="circle16" /></svg>