<?xml version="1.0" encoding="UTF-8" standalone="no"?>
<svg
   xmlns:dc="http://purl.org/dc/elements/1.1/"
   xmlns:cc="http://creativecommons.org/ns#"
   xmlns:rdf="http://www.w3.org/1999/02/22-rdf-syntax-ns#"
   xmlns:svg="http://www.w3.org/2000/svg"
   xmlns="http://www.w3.org/2000/svg"
   xmlns:sodipodi="http://sodipodi.sourceforge.net/DTD/sodipodi-0.dtd"
   xmlns:inkscape="http://www.inkscape.org/namespaces/inkscape"
   version="1.1"
   x="0px"
   y="0px"
   viewBox="0 0 38.958 34.917336"
   enable-background="new 0 0 90 90"
   xml:space="preserve"
   id="svg76"
   inkscape:version="0.91 r13725"
   sodipodi:docname="noun_156224_cc.svg"
   width="38.958"
   height="34.917336"><metadata
     id="metadata100"><rdf:RDF><cc:Work
         rdf:about=""><dc:format>image/svg+xml</dc:format><dc:type
           rdf:resource="http://purl.org/dc/dcmitype/StillImage" /><dc:title></dc:title></cc:Work></rdf:RDF></metadata><defs
     id="defs98" /><sodipodi:namedview
     pagecolor="#ffffff"
     bordercolor="#666666"
     borderopacity="1"
     objecttolerance="10"
     gridtolerance="10"
     guidetolerance="10"
     inkscape:pageopacity="0"
     inkscape:pageshadow="2"
     inkscape:window-width="2560"
     inkscape:window-height="1471"
     id="namedview96"
     showgrid="false"
     fit-margin-top="0"
     fit-margin-left="0"
     fit-margin-right="0"
     fit-margin-bottom="0"
     inkscape:zoom="2.0977778"
     inkscape:cx="20.56039"
     inkscape:cy="5.7493152"
     inkscape:window-x="0"
     inkscape:window-y="55"
     inkscape:window-maximized="1"
     inkscape:current-layer="svg76" /><g
     display="none"
     id="g78"
     style="display:none"
     transform="translate(-25.393,-27.081979)"><path
       display="inline"
       d="m 44.75,5.625 c 21.78,0 39.5,17.691 39.5,39.438 C 84.25,66.81 66.53,84.5 44.75,84.5 22.97,84.5 5.25,66.809 5.25,45.062 5.25,23.315 22.97,5.625 44.75,5.625 m 0,-0.5 c -22.091,0 -40,17.881 -40,39.938 0,22.057 17.909,39.937 40,39.937 22.092,0 40,-17.881 40,-39.938 0,-22.057 -17.908,-39.937 -40,-39.937 l 0,0 z"
       id="path80"
       inkscape:connector-curvature="0"
       style="display:inline" /></g><path
     d="m 35.733,34.841021 c 0,0.463 -9.589,-1.36 -18.563,-1.36 -8.974,0.001 -13.936,1.824 -13.936,1.361 0,-0.462 5.066,-3.066 14.04,-3.067 8.974,-10e-4 18.459,2.604 18.459,3.066 z"
     id="path82"
     inkscape:connector-curvature="0" /><path
     d="m 32.495,1.9360213 c 0.001,-0.219 1.463,-1.94300004 3.248,-1.936000042671 C 37.527,0.00702126 38.959,1.7410213 38.958,1.9600213 c 0,0.218 -1.474,-0.455 -3.259,-0.461 -1.784,-0.007 -3.204,0.655 -3.204,0.437 z"
     id="path84"
     inkscape:connector-curvature="0" /><path
     d="m 0,1.9600213 c 0,-0.219 1.455,-1.94800004 3.24,-1.94800004 1.784,0 3.224,1.72900004 3.224,1.94800004 0,0.218 -1.477,-0.449 -3.262,-0.449 -1.784,0 -3.202,0.667 -3.202,0.449 z"
     id="path86"
     inkscape:connector-curvature="0" /><circle
     cx="3.2159994"
     cy="2.2930212"
     r="1.4170001"
     id="circle88" /><circle
     cx="35.757999"
     cy="2.2930212"
     r="1.4170001"
     id="circle90" /></svg>