<?xml version="1.0" encoding="UTF-8" standalone="no"?>
<svg
   xmlns:dc="http://purl.org/dc/elements/1.1/"
   xmlns:cc="http://creativecommons.org/ns#"
   xmlns:rdf="http://www.w3.org/1999/02/22-rdf-syntax-ns#"
   xmlns:svg="http://www.w3.org/2000/svg"
   xmlns="http://www.w3.org/2000/svg"
   xmlns:sodipodi="http://sodipodi.sourceforge.net/DTD/sodipodi-0.dtd"
   xmlns:inkscape="http://www.inkscape.org/namespaces/inkscape"
   version="1.1"
   x="0px"
   y="0px"
   viewBox="0 0 39.628002 44.315998"
   enable-background="new 0 0 90 90"
   xml:space="preserve"
   id="svg28"
   inkscape:version="0.91 r13725"
   sodipodi:docname="noun_156225_cc.svg"
   width="39.628002"
   height="44.315998"><metadata
     id="metadata48"><rdf:RDF><cc:Work
         rdf:about=""><dc:format>image/svg+xml</dc:format><dc:type
           rdf:resource="http://purl.org/dc/dcmitype/StillImage" /><dc:title></dc:title></cc:Work></rdf:RDF></metadata><defs
     id="defs46" /><sodipodi:namedview
     pagecolor="#ffffff"
     bordercolor="#666666"
     borderopacity="1"
     objecttolerance="10"
     gridtolerance="10"
     guidetolerance="10"
     inkscape:pageopacity="0"
     inkscape:pageshadow="2"
     inkscape:window-width="2560"
     inkscape:window-height="1471"
     id="namedview44"
     showgrid="false"
     fit-margin-top="0"
     fit-margin-left="0"
     fit-margin-right="0"
     fit-margin-bottom="0"
     inkscape:zoom="2.0977778"
     inkscape:cx="20.178391"
     inkscape:cy="13.189"
     inkscape:window-x="0"
     inkscape:window-y="55"
     inkscape:window-maximized="1"
     inkscape:current-layer="svg28" /><g
     display="none"
     id="g30"
     style="display:none"
     transform="translate(-25.774999,-25.123)"><path
       display="inline"
       d="m 44.75,5.625 c 21.78,0 39.5,17.691 39.5,39.438 C 84.25,66.81 66.53,84.5 44.75,84.5 22.97,84.5 5.25,66.809 5.25,45.062 5.25,23.315 22.97,5.625 44.75,5.625 m 0,-0.5 c -22.091,0 -40,17.881 -40,39.938 0,22.057 17.909,39.937 40,39.937 22.092,0 40,-17.881 40,-39.938 0,-22.057 -17.908,-39.937 -40,-39.937 l 0,0 z"
       id="path32"
       inkscape:connector-curvature="0"
       style="display:inline" /></g><path
     d="m 2.8500009,30.226 c 0,-0.463 7.4010001,-7.515 16.3760001,-7.515 8.974,-10e-4 16.124,7.051 16.124,7.514 0,0.462 -7.15,14.09 -16.124,14.091 -8.974,-0.001 -16.3760001,-13.628 -16.3760001,-14.09 z"
     id="path34"
     inkscape:connector-curvature="0" /><circle
     cx="2.8340001"
     cy="4.2519999"
     r="2.8340001"
     id="circle36" /><circle
     cx="35.376003"
     cy="4.2519999"
     r="4.2519999"
     id="circle38" /></svg>