<?xml version="1.0" encoding="UTF-8" standalone="no"?>
<!-- Created with Inkscape (http://www.inkscape.org/) -->

<svg
   xmlns:dc="http://purl.org/dc/elements/1.1/"
   xmlns:cc="http://creativecommons.org/ns#"
   xmlns:rdf="http://www.w3.org/1999/02/22-rdf-syntax-ns#"
   xmlns:svg="http://www.w3.org/2000/svg"
   xmlns="http://www.w3.org/2000/svg"
   xmlns:sodipodi="http://sodipodi.sourceforge.net/DTD/sodipodi-0.dtd"
   xmlns:inkscape="http://www.inkscape.org/namespaces/inkscape"
   id="svg2"
   version="1.1"
   inkscape:version="0.91 r13725"
   xml:space="preserve"
   width="70.444801"
   height="95.463852"
   viewBox="0 0 70.444801 95.463851"
   sodipodi:docname="favicon.svg"><metadata
     id="metadata8"><rdf:RDF><cc:Work
         rdf:about=""><dc:format>image/svg+xml</dc:format><dc:type
           rdf:resource="http://purl.org/dc/dcmitype/StillImage" /><dc:title></dc:title></cc:Work></rdf:RDF></metadata><defs
     id="defs6" /><sodipodi:namedview
     pagecolor="#ffffff"
     bordercolor="#666666"
     borderopacity="1"
     objecttolerance="10"
     gridtolerance="10"
     guidetolerance="10"
     inkscape:pageopacity="0"
     inkscape:pageshadow="2"
     inkscape:window-width="2560"
     inkscape:window-height="1471"
     id="namedview4"
     showgrid="false"
     fit-margin-top="0"
     fit-margin-left="0"
     fit-margin-right="0"
     fit-margin-bottom="0"
     inkscape:zoom="6.2794805"
     inkscape:cx="67.225822"
     inkscape:cy="47.344994"
     inkscape:window-x="0"
     inkscape:window-y="55"
     inkscape:window-maximized="1"
     inkscape:current-layer="g10" /><g
     id="g10"
     inkscape:groupmode="layer"
     inkscape:label="ink_ext_XXXXXX"
     transform="matrix(1.25,0,0,-1.25,-54.048326,260.71885)"><path
       inkscape:connector-curvature="0"
       id="path14"
       style="fill:#505a84;fill-opacity:1;fill-rule:nonzero;stroke:none"
       d="m 78.9766,178.972 c -1.4786,-0.032 -2.6903,-1.278 -2.6629,-2.738 0.0281,-1.486 1.2418,-2.642 2.7527,-2.622 1.5492,0.02 2.6336,1.144 2.6176,2.713 -0.0152,1.505 -1.2152,2.678 -2.7074,2.647 z m -12.3688,-2.696 c 0.0027,1.458 -1.2242,2.68 -2.7058,2.696 -1.4848,0.015 -2.6618,-1.173 -2.6637,-2.688 -0.002,-1.56 1.0953,-2.662 2.6578,-2.67 1.5016,-0.008 2.7086,1.177 2.7117,2.662 z m 10.9434,-14.892 c -0.4887,-0.185 -0.5074,-0.411 -0.2293,-0.79 0.7636,-1.041 1.4535,-2.144 2.2883,-3.124 1.4816,-1.739 3.073,-3.377 5.1351,-4.723 0,4.667 0,9.154 0,13.843 -2.0664,-2.402 -4.393,-4.147 -7.1941,-5.206 z m -6.4168,20.87 c 0.5101,-0.454 0.5875,-0.049 0.8008,0.183 1.5781,1.721 3.4785,2.812 5.8175,3.164 0.7696,0.116 1.559,0.043 2.4055,0.177 -4.0492,4.439 -13.2594,4.442 -17.3937,0.002 4.4539,-0.285 4.9293,-0.463 8.3699,-3.526 z m -3.6367,-27.573 c 4.6375,-4.183 10.0609,-6.63 16.2921,-7.231 0.3461,-0.033 0.8465,-0.294 0.9942,0.327 0.118,0.497 -0.2348,0.7 -0.5906,0.928 -4.3602,2.793 -7.8688,6.417 -10.4684,10.895 -0.3453,0.595 -0.7383,0.728 -1.3562,0.708 -1.0872,-0.034 -2.1758,-0.063 -3.2625,0.105 -3.0125,0.466 -5.718,1.642 -8.2168,3.413 1.5246,-3.565 3.766,-6.582 6.6082,-9.145 z m 2.2062,21.562 c -0.1398,3.921 -3.5066,6.563 -7.1648,5.667 -3.3196,-0.813 -4.9121,-3.705 -4.109,-7.43 1.3371,-6.2 7.0418,-11.059 14.2215,-10.578 5.9312,0.397 11.2664,5.388 12.105,11.647 0.4395,3.28 -1.8918,6.235 -5.1636,6.546 -3.2961,0.314 -6.1532,-2.242 -6.2567,-5.611 -0.0246,-0.806 -1.8258,-5.62 -1.8258,-6.427 M 88.443,142.885 c 0.0304,0.681 -3.8496,0.846 -4.5137,0.935 -12.9637,1.735 -24.516,10.284 -28.1301,22.952 -1.2929,4.533 -1.9242,9.142 -0.6094,13.832 2.0657,7.369 9.1489,12.441 17.1106,12.183 7.3203,-0.237 14.1082,-5.915 15.6726,-13.094 0.3106,-1.425 0.4719,-2.854 0.47,-4.316" /><path
       inkscape:connector-curvature="0"
       id="path16"
       style="fill:#505a84;fill-opacity:1;fill-rule:nonzero;stroke:none"
       d="m 93.341,166.571 c 0,-11.686 -8.8332,-21.995 -21.8879,-27.492 -13.0535,5.497 -21.8879,15.806 -21.8879,27.492 l 0,27.492 43.7758,0 0,-27.492 z m -50.0293,34.365 0,-34.365 c 0,-14.434 11.3578,-27.492 28.1414,-34.367 16.7856,6.875 28.1414,19.933 28.1414,34.367 l 0,34.365 -56.2828,0" /><path
       inkscape:connector-curvature="0"
       id="path18"
       style="fill:none;stroke:#505a84;stroke-width:1.08072007;stroke-linecap:butt;stroke-linejoin:miter;stroke-miterlimit:10;stroke-dasharray:none;stroke-opacity:1"
       d="m 43.3117,201.131 50.0293,6.825 0,-9.199" /></g></svg>