<?xml version="1.0" encoding="UTF-8" standalone="no"?>
<svg
   xmlns:dc="http://purl.org/dc/elements/1.1/"
   xmlns:cc="http://creativecommons.org/ns#"
   xmlns:rdf="http://www.w3.org/1999/02/22-rdf-syntax-ns#"
   xmlns:svg="http://www.w3.org/2000/svg"
   xmlns="http://www.w3.org/2000/svg"
   xmlns:sodipodi="http://sodipodi.sourceforge.net/DTD/sodipodi-0.dtd"
   xmlns:inkscape="http://www.inkscape.org/namespaces/inkscape"
   version="1.1"
   x="0px"
   y="0px"
   viewBox="0 0 38.965 40.328999"
   enable-background="new 0 0 90 90"
   xml:space="preserve"
   id="svg50"
   inkscape:version="0.91 r13725"
   sodipodi:docname="noun_156223_cc.svg"
   width="38.965"
   height="40.328999"><metadata
     id="metadata74"><rdf:RDF><cc:Work
         rdf:about=""><dc:format>image/svg+xml</dc:format><dc:type
           rdf:resource="http://purl.org/dc/dcmitype/StillImage" /><dc:title></dc:title></cc:Work></rdf:RDF></metadata><defs
     id="defs72" /><sodipodi:namedview
     pagecolor="#ffffff"
     bordercolor="#666666"
     borderopacity="1"
     objecttolerance="10"
     gridtolerance="10"
     guidetolerance="10"
     inkscape:pageopacity="0"
     inkscape:pageshadow="2"
     inkscape:window-width="2560"
     inkscape:window-height="1471"
     id="namedview70"
     showgrid="false"
     fit-margin-top="0"
     fit-margin-left="0"
     fit-margin-right="0"
     fit-margin-bottom="0"
     inkscape:zoom="2.0977778"
     inkscape:cx="20.56239"
     inkscape:cy="9.7980002"
     inkscape:window-x="0"
     inkscape:window-y="55"
     inkscape:window-maximized="1"
     inkscape:current-layer="svg50" /><g
     display="none"
     id="g52"
     style="display:none"
     transform="translate(-25.391,-25.719)"><path
       display="inline"
       d="m 44.75,5.625 c 21.78,0 39.5,17.691 39.5,39.438 C 84.25,66.81 66.53,84.5 44.75,84.5 22.97,84.5 5.25,66.809 5.25,45.062 5.25,23.315 22.97,5.625 44.75,5.625 m 0,-0.5 c -22.091,0 -40,17.881 -40,39.938 0,22.057 17.909,39.937 40,39.937 22.092,0 40,-17.881 40,-39.938 0,-22.057 -17.908,-39.937 -40,-39.937 l 0,0 z"
       id="path54"
       inkscape:connector-curvature="0"
       style="display:inline" /></g><path
     d="m 35.735,36.204 c 0,0.463 -7.316,4.125 -16.291,4.125 C 10.47,40.33 3.236,36.668 3.236,36.205 c 0,-0.462 7.339,2.419 16.312,2.418 8.974,0 16.187,-2.881 16.187,-2.419 z"
     id="path56"
     inkscape:connector-curvature="0" /><path
     d="M 0,1.948 C 0,1.729 1.455,0 3.24,0 5.025,0 6.463,1.729 6.463,1.948 6.463,2.166 4.987,1.499 3.202,1.499 1.417,1.499 0,2.167 0,1.948 Z"
     id="path58"
     inkscape:connector-curvature="0" /><path
     d="M 32.501,1.948 C 32.501,1.729 33.956,0 35.741,0 c 1.784,0 3.224,1.729 3.224,1.948 0,0.218 -1.477,-0.449 -3.262,-0.449 -1.784,10e-4 -3.202,0.668 -3.202,0.449 z"
     id="path60"
     inkscape:connector-curvature="0" /><circle
     cx="3.2179992"
     cy="3.6559999"
     r="1.4170001"
     id="circle62" /><circle
     cx="35.760002"
     cy="3.6559999"
     r="1.4170001"
     id="circle64" /></svg>