<?xml version="1.0" encoding="UTF-8" standalone="no"?>
<svg
   xmlns:dc="http://purl.org/dc/elements/1.1/"
   xmlns:cc="http://creativecommons.org/ns#"
   xmlns:rdf="http://www.w3.org/1999/02/22-rdf-syntax-ns#"
   xmlns:svg="http://www.w3.org/2000/svg"
   xmlns="http://www.w3.org/2000/svg"
   xmlns:sodipodi="http://sodipodi.sourceforge.net/DTD/sodipodi-0.dtd"
   xmlns:inkscape="http://www.inkscape.org/namespaces/inkscape"
   version="1.1"
   viewBox="0 0 87.125 90"
   xml:space="preserve"
   x="0px"
   y="0px"
   id="svg124"
   inkscape:version="0.91 r13725"
   sodipodi:docname="noun_430516_cc.svg"
   width="87.125"
   height="90"><metadata
     id="metadata136"><rdf:RDF><cc:Work
         rdf:about=""><dc:format>image/svg+xml</dc:format><dc:type
           rdf:resource="http://purl.org/dc/dcmitype/StillImage" /><dc:title></dc:title></cc:Work></rdf:RDF></metadata><defs
     id="defs134" /><sodipodi:namedview
     pagecolor="#ffffff"
     bordercolor="#666666"
     borderopacity="1"
     objecttolerance="10"
     gridtolerance="10"
     guidetolerance="10"
     inkscape:pageopacity="0"
     inkscape:pageshadow="2"
     inkscape:window-width="2560"
     inkscape:window-height="1471"
     id="namedview132"
     showgrid="false"
     fit-margin-top="0"
     fit-margin-left="0"
     fit-margin-right="0"
     fit-margin-bottom="0"
     inkscape:zoom="5.3400704"
     inkscape:cx="44.621822"
     inkscape:cy="32.5"
     inkscape:window-x="0"
     inkscape:window-y="55"
     inkscape:window-maximized="1"
     inkscape:current-layer="svg124" /><path
     d="m 61.875,0 c -2.696446,0 -4.59375,2.2773303 -4.59375,4.78125 0,2.608808 2.138253,6.917269 7.5,10.15625 0.06669,0.04027 0.223143,0.125 0.46875,0.125 0.245131,0 0.371283,-0.08498 0.4375,-0.125 5.36127,-3.238981 7.5,-7.547525 7.5,-10.15625 C 73.1875,2.2773303 71.290196,0 68.59375,0 67.018346,0 65.917395,0.931638 65.25,1.65625 64.582583,0.9317212 63.450166,0 61.875,0 Z m -26,2.96875 c -3.893335,0 -6.625,3.322107 -6.625,6.9375 0,3.766846 3.070529,9.948243 10.8125,14.625 0.09617,0.05813 0.301629,0.1875 0.65625,0.1875 0.353907,0 0.56067,-0.129724 0.65625,-0.1875 7.741258,-4.676757 10.8125,-10.858273 10.8125,-14.625 0,-3.615393 -2.731665,-6.9375 -6.625,-6.9375 -2.274778,0 -3.880105,1.328733 -4.84375,2.375 -0.963678,-1.0461481 -2.569447,-2.375 -4.84375,-2.375 z M 70.78125,21.5625 c -3.893335,0 -6.625,3.290857 -6.625,6.90625 0,3.766846 3.101779,9.979493 10.84375,14.65625 0.09617,0.05813 0.301629,0.1875 0.65625,0.1875 0.353907,0 0.529421,-0.129724 0.625,-0.1875 C 84.022508,38.448243 87.125,32.235477 87.125,28.46875 c 0,-3.615393 -2.731665,-6.90625 -6.625,-6.90625 -2.274777,0 -3.880105,1.297483 -4.84375,2.34375 -0.963678,-1.046148 -2.600698,-2.34375 -4.875,-2.34375 z m -52,6.75 C 7.74094,28.3125 0,37.685404 0,47.9375 0,58.619147 8.764976,76.206922 30.71875,89.46875 30.991462,89.633638 31.55689,90 32.5625,90 33.565732,90 34.104071,89.632805 34.375,89.46875 56.326872,76.20716 65.09375,58.618695 65.09375,47.9375 c 0,-10.252096 -7.740941,-19.625 -18.78125,-19.625 -6.450454,0 -11.017414,3.751981 -13.75,6.71875 C 29.829557,32.064874 25.230634,28.3125 18.78125,28.3125 Z m 0,5.71875 c 5.683793,0 9.703241,4.850809 11.5,7.1875 l 2.28125,2.9375 2.25,-2.9375 c 1.795927,-2.336179 5.816682,-7.1875 11.5,-7.1875 7.853838,0 13.0625,6.435279 13.0625,13.90625 0,7.121784 -7.107588,23.585702 -26.8125,35.9375 C 12.85949,71.523321 5.71875,55.058963 5.71875,47.9375 c 0,-7.470971 5.208781,-13.90625 13.0625,-13.90625 z"
     style="color:#000000;text-indent:0;text-transform:none;direction:ltr;block-progression:tb;baseline-shift:baseline;display:inline;overflow:visible;visibility:visible;fill:#000000;fill-opacity:1;fill-rule:nonzero;stroke:none;marker:none;enable-background:accumulate"
     visibility="visible"
     display="inline"
     overflow="visible"
     id="path126"
     inkscape:connector-curvature="0" /></svg>