<?xml version="1.0" encoding="UTF-8" standalone="no"?>
<svg
   xmlns:dc="http://purl.org/dc/elements/1.1/"
   xmlns:cc="http://creativecommons.org/ns#"
   xmlns:rdf="http://www.w3.org/1999/02/22-rdf-syntax-ns#"
   xmlns:svg="http://www.w3.org/2000/svg"
   xmlns="http://www.w3.org/2000/svg"
   xmlns:sodipodi="http://sodipodi.sourceforge.net/DTD/sodipodi-0.dtd"
   xmlns:inkscape="http://www.inkscape.org/namespaces/inkscape"
   version="1.1"
   x="0px"
   y="0px"
   viewBox="0 0 47.75 47.125"
   enable-background="new 0 0 90 90"
   xml:space="preserve"
   id="svg102"
   inkscape:version="0.91 r13725"
   sodipodi:docname="noun_156219_cc.svg"
   width="47.75"
   height="47.125"><metadata
     id="metadata122"><rdf:RDF><cc:Work
         rdf:about=""><dc:format>image/svg+xml</dc:format><dc:type
           rdf:resource="http://purl.org/dc/dcmitype/StillImage" /><dc:title></dc:title></cc:Work></rdf:RDF></metadata><defs
     id="defs120" /><sodipodi:namedview
     pagecolor="#ffffff"
     bordercolor="#666666"
     borderopacity="1"
     objecttolerance="10"
     gridtolerance="10"
     guidetolerance="10"
     inkscape:pageopacity="0"
     inkscape:pageshadow="2"
     inkscape:window-width="2560"
     inkscape:window-height="1471"
     id="namedview118"
     showgrid="false"
     fit-margin-top="0"
     fit-margin-left="0"
     fit-margin-right="0"
     fit-margin-bottom="0"
     inkscape:zoom="2.0977778"
     inkscape:cx="24.95339"
     inkscape:cy="15.75"
     inkscape:window-x="0"
     inkscape:window-y="55"
     inkscape:window-maximized="1"
     inkscape:current-layer="svg102" /><g
     display="none"
     id="g104"
     style="display:none"
     transform="translate(-21,-24.875)"><path
       display="inline"
       d="m 44.75,5.625 c 21.78,0 39.5,17.691 39.5,39.438 C 84.25,66.81 66.53,84.5 44.75,84.5 22.97,84.5 5.25,66.809 5.25,45.062 5.25,23.315 22.97,5.625 44.75,5.625 m 0,-0.5 c -22.091,0 -40,17.881 -40,39.938 0,22.057 17.909,39.937 40,39.937 22.092,0 40,-17.881 40,-39.938 0,-22.057 -17.908,-39.937 -40,-39.937 l 0,0 z"
       id="path106"
       inkscape:connector-curvature="0"
       style="display:inline" /></g><path
     d="m 15.25,4.5 c 0,4.211 -3.414,7.625 -7.625,7.625 C 3.414,12.125 0,8.711 0,4.5 0,0.289 3.414,0 7.625,0 11.836,0 15.25,0.289 15.25,4.5 Z"
     id="path108"
     inkscape:connector-curvature="0" /><path
     d="m 40.125,37.456 c 0,5.34 -7.275,9.669 -16.25,9.669 -8.974,0 -16.25,-4.329 -16.25,-9.669 0,-5.34 7.276,-5.706 16.25,-5.706 8.975,0 16.25,0.366 16.25,5.706 z"
     id="path110"
     inkscape:connector-curvature="0" /><path
     d="m 47.75,4.5 c 0,4.211 -3.414,7.625 -7.625,7.625 C 35.914,12.125 32.5,8.711 32.5,4.5 32.5,0.289 35.914,0 40.125,0 44.336,0 47.75,0.289 47.75,4.5 Z"
     id="path112"
     inkscape:connector-curvature="0" /></svg>